<svg xmlns="http://www.w3.org/2000/svg" width="41" height="50" viewBox="-335.5 382.5 41 50">
  <path fill="#B5B5B5" d="M-301.258 409.064c.071 7.566 6.685 10.085 6.758 10.116-.056.178-1.057 3.589-3.485 7.111-2.098 3.047-4.276 6.081-7.708 6.145-3.371.061-4.456-1.986-8.31-1.986s-5.058 1.923-8.25 2.047c-3.311.125-5.834-3.293-7.949-6.328-4.324-6.207-7.628-17.541-3.192-25.191 2.205-3.799 6.144-6.205 10.42-6.267 3.252-.062 6.322 2.173 8.31 2.173 1.987 0 5.717-2.688 9.639-2.293 1.641.068 6.25.658 9.209 4.96-.239.147-5.499 3.187-5.442 9.513m-6.337-18.58c1.758-2.114 2.941-5.056 2.619-7.983-2.534.102-5.599 1.678-7.417 3.789-1.63 1.871-3.057 4.865-2.671 7.734 2.824.217 5.71-1.425 7.469-3.54"/>
</svg>
