<svg xmlns="http://www.w3.org/2000/svg" width="49" height="50" viewBox="0 0 49 50">
  <path fill="currentColor" d="M31.893 0h-12.02c-5.356 0-9.064 1.164-12.401 3.9-2.624 2.246-4.19 5.51-4.19 8.733 0 4.965 3.815 10.239 10.886 10.239.68 0 1.432-.066 2.096-.131l-.098.236c-.284.676-.554 1.312-.554 2.307 0 1.939.942 3.133 1.852 4.287l.115.146-.203.014c-2.919.2-8.354.569-12.323 2.989C.365 35.485 0 39.51 0 40.676 0 45.316 4.36 50 14.101 50c11.327 0 17.252-6.197 17.252-12.32.002-4.53-2.677-6.769-5.518-9.142l-2.397-1.85c-.741-.609-1.663-1.367-1.663-2.771 0-1.379.922-2.289 1.736-3.094l.085-.084c2.588-2.021 5.522-4.315 5.522-9.276 0-4.988-3.143-7.565-4.652-8.805h3.989a.253.253 0 0 0 .138-.041L32.029.474a.252.252 0 0 0 .111-.289.255.255 0 0 0-.247-.185zM17.317 47.27c-6.904 0-11.543-3.199-11.543-7.961 0-3.11 1.897-5.368 5.634-6.712 2.993-1 6.855-1.049 6.894-1.049.655 0 .983 0 1.506.062 4.831 3.412 7.153 5.203 7.153 8.614-.001 4.346-3.696 7.046-9.644 7.046zm-.065-26.224c-5.794 0-8.199-7.557-8.199-11.604 0-2.057.472-3.635 1.441-4.829 1.053-1.307 2.856-2.15 4.594-2.15 5.32 0 8.262 7.094 8.262 11.999 0 .771 0 3.127-1.639 4.762-1.102 1.089-2.894 1.822-4.459 1.822zM48.74 23.354h-6.334v-6.262a.26.26 0 0 0-.26-.26H39.42a.26.26 0 0 0-.261.26v6.262h-6.303a.26.26 0 0 0-.26.258v2.738a.26.26 0 0 0 .26.258h6.303v6.303a.26.26 0 0 0 .261.258h2.726a.26.26 0 0 0 .26-.258v-6.303h6.334a.26.26 0 0 0 .26-.26v-2.736a.258.258 0 0 0-.26-.258z"/>
</svg>
