<svg xmlns="http://www.w3.org/2000/svg" width="50" height="50" viewBox="0 0 50 50">
  <path fill="currentColor" d="M49.999 30.43V49H39.281V31.674c0-4.354-1.549-7.324-5.428-7.324-2.961 0-4.725 2.002-5.5 3.938-.283.691-.354 1.656-.354 2.625V49h-10.72s.145-29.348 0-32.389h10.719v4.592c-.021.035-.051.07-.07.104h.07v-.104c1.424-2.205 3.968-5.352 9.66-5.352 7.054.001 12.341 4.629 12.341 14.579zM6.066 1C2.399 1 0 3.416 0 6.594c0 3.109 2.33 5.6 5.924 5.6h.072c3.738 0 6.063-2.488 6.063-5.6C11.988 3.416 9.733 1 6.066 1zM.636 49h10.716V16.611H.636V49z"/>
</svg>
