<svg xmlns="http://www.w3.org/2000/svg" width="50" height="50" viewBox="0 0 50 50">
  <path fill="currentColor" d="M49.998 9.35a20.256 20.256 0 0 1-5.891 1.631 10.378 10.378 0 0 0 4.51-5.725 20.57 20.57 0 0 1-6.518 2.516A10.186 10.186 0 0 0 34.613 4.5c-5.666 0-10.257 4.637-10.257 10.352 0 .812.09 1.604.266 2.359-8.523-.432-16.082-4.553-21.14-10.818a10.354 10.354 0 0 0-1.387 5.203c0 3.596 1.812 6.766 4.562 8.619a10.163 10.163 0 0 1-4.646-1.301v.129c0 5.016 3.537 9.201 8.227 10.154a10.36 10.36 0 0 1-2.703.361 9.69 9.69 0 0 1-1.931-.191c1.306 4.117 5.093 7.109 9.58 7.191a20.461 20.461 0 0 1-12.738 4.426c-.828 0-1.644-.053-2.446-.143A28.805 28.805 0 0 0 15.722 45.5c18.868 0 29.182-15.777 29.182-29.461l-.035-1.34a20.616 20.616 0 0 0 5.129-5.349z"/>
</svg>
