<svg xmlns="http://www.w3.org/2000/svg" width="42" height="50" viewBox="0 0 42 50">
  <path d="M35.525 36.572H32.76l.014-1.594c0-.707.586-1.287 1.302-1.287h.176c.718 0 1.306.58 1.306 1.287l-.033 1.594zM25.15 33.158c-.7 0-1.274.467-1.274 1.039v7.752c0 .572.574 1.039 1.274 1.039.705 0 1.279-.467 1.279-1.039v-7.752c.001-.572-.574-1.039-1.279-1.039zM42 28.822v14.746C42 47.105 38.908 50 35.128 50H6.872C3.091 50 0 47.105 0 43.568V28.822c0-3.539 3.091-6.434 6.872-6.434h28.256c3.78.003 6.872 2.895 6.872 6.434zM8.757 45.17l-.002-15.535 3.503.002v-2.301L2.92 27.32v2.264l2.915.008V45.17h2.922zm10.5-13.221h-2.921v8.295c0 1.199.074 1.801-.004 2.012-.237.645-1.305 1.328-1.721.068-.071-.219-.008-.883-.009-2.021l-.012-8.354h-2.904l.009 8.221c.002 1.262-.029 2.199.01 2.629.071.752.046 1.631.751 2.135 1.314.938 3.832-.141 4.462-1.482l-.005 1.713 2.345.004-.001-13.22zm9.343 9.5l-.008-6.904c-.002-2.633-1.986-4.207-4.679-2.078l.012-5.133-2.917.004-.014 17.717 2.398-.033.217-1.104c3.067 2.789 4.995.877 4.991-2.469zm9.138-.916l-2.189.012-.005.295v1.211c0 .648-.541 1.178-1.196 1.178h-.43a1.192 1.192 0 0 1-1.197-1.178v-3.188h5.014V36.99c0-1.369-.035-2.736-.15-3.518-.359-2.477-3.859-2.867-5.628-1.604a3.282 3.282 0 0 0-1.226 1.639c-.248.711-.373 1.684-.373 2.918v4.117c.001 6.845 8.38 5.878 7.38-.009zM26.506 18.186c.151.363.385.656.703.879.312.219.714.33 1.195.33.421 0 .794-.113 1.119-.346.324-.232.597-.578.82-1.041l-.057 1.137h3.256V5.412H30.98V16.1c0 .58-.48 1.053-1.068 1.053a1.064 1.064 0 0 1-1.066-1.053V5.412h-2.675v9.264c0 1.18.022 1.967.058 2.365.035.395.126.775.277 1.145zm-9.865-7.758c0-1.318.111-2.348.332-3.09.221-.74.62-1.334 1.196-1.781.575-.451 1.312-.678 2.207-.678.753 0 1.397.146 1.938.436.541.287.959.662 1.248 1.125.295.465.496.943.603 1.432.108.494.163 1.24.163 2.248v3.475c0 1.273-.053 2.211-.151 2.807s-.313 1.15-.642 1.668a3.033 3.033 0 0 1-1.254 1.143c-.514.248-1.101.369-1.766.369-.742 0-1.367-.102-1.882-.314a2.585 2.585 0 0 1-1.201-.951c-.288-.424-.49-.938-.611-1.541-.123-.6-.181-1.504-.181-2.707l.001-3.641zm2.55 5.455c0 .777.583 1.414 1.294 1.414s1.292-.637 1.292-1.414V8.572c0-.777-.583-1.412-1.292-1.412s-1.294.635-1.294 1.412v7.311zm-9.009 3.691h3.071l.003-10.533L16.885.02h-3.358l-1.93 6.701L9.641 0H6.317l3.86 9.047.005 10.527z"/>
</svg>
